<svg width="148" height="23" viewBox="0 0 148 23" fill="none" xmlns="http://www.w3.org/2000/svg">
<path d="M16.48 22.304H20.832L11.936 0H8.928L0 22.304H4.352L6.048 17.696H14.784L16.48 22.304ZM7.424 14.016L10.432 5.888L13.44 14.016H7.424Z" fill="currentColor"/>
<path d="M28.8057 22.624C31.7817 22.624 34.9497 21.024 34.9497 17.344C34.9497 11.584 26.6938 12.992 26.6938 10.592C26.6938 9.856 27.4618 9.248 28.7097 9.248C30.4377 9.248 31.3018 10.272 31.8458 11.264L34.8218 9.632C33.6377 7.488 31.5578 6.208 28.8377 6.208C25.7977 6.208 23.0457 7.776 23.0457 10.816C23.0457 16.672 31.1737 14.912 31.1737 17.568C31.1737 18.4 30.4058 19.424 28.6138 19.424C26.5018 19.424 25.6698 17.984 25.2537 16.832L22.1817 18.208C22.9497 20.608 25.4777 22.624 28.8057 22.624Z" fill="currentColor"/>
<path d="M43.7895 22.624C46.7655 22.624 49.9335 21.024 49.9335 17.344C49.9335 11.584 41.6775 12.992 41.6775 10.592C41.6775 9.856 42.4455 9.248 43.6935 9.248C45.4215 9.248 46.2855 10.272 46.8295 11.264L49.8055 9.632C48.6215 7.488 46.5415 6.208 43.8215 6.208C40.7815 6.208 38.0295 7.776 38.0295 10.816C38.0295 16.672 46.1575 14.912 46.1575 17.568C46.1575 18.4 45.3895 19.424 43.5975 19.424C41.4855 19.424 40.6535 17.984 40.2375 16.832L37.1655 18.208C37.9335 20.608 40.4615 22.624 43.7895 22.624Z" fill="currentColor"/>
<path d="M67.1908 14.208C67.1908 9.824 64.8228 6.208 59.9268 6.208C54.6787 6.208 52.4387 10.368 52.4387 14.496C52.4387 18.72 54.7428 22.624 60.1828 22.624C62.8387 22.624 64.9188 21.696 66.6468 19.776L63.9907 17.44C62.9027 18.688 61.6227 19.136 60.2147 19.136C57.7188 19.136 56.4387 17.76 56.2787 15.68H67.0947C67.1588 15.168 67.1908 14.688 67.1908 14.208ZM56.2467 12.64C56.4707 11.072 57.5587 9.408 59.8947 9.408C61.9107 9.408 63.4468 10.624 63.5107 12.64H56.2467Z" fill="currentColor"/>
<path d="M79.4005 9.568V6.528H75.4645V0.639999L71.6245 3.488V6.528H69.0645V9.568H71.6245V17.888C71.6245 21.248 73.8645 22.624 76.5205 22.624C77.4805 22.624 78.4405 22.464 79.4005 22.144V19.072C78.6965 19.296 78.0245 19.424 77.4805 19.424C76.2325 19.424 75.4645 18.848 75.4645 17.6V9.568H79.4005Z" fill="currentColor"/>
<path d="M91.0405 6.208C89.2485 6.208 87.4885 6.944 86.4965 8.128V0H82.6565V22.304H86.4965V20.736C87.5845 22.08 89.3445 22.624 91.0405 22.624C95.3285 22.624 97.6965 19.136 97.6965 14.4C97.6965 9.248 94.9125 6.208 91.0405 6.208ZM90.1125 19.072C87.3285 19.072 86.1445 17.056 86.1445 14.432C86.1445 11.808 87.3285 9.696 90.0805 9.696C92.6405 9.696 93.8565 11.488 93.8565 14.432C93.8565 17.344 92.6725 19.072 90.1125 19.072Z" fill="currentColor"/>
<path d="M107.72 6.208C104.84 6.208 102.504 7.328 100.616 9.6L103.4 11.936C104.552 10.4 106.056 9.568 107.656 9.568C109.48 9.568 110.632 10.624 110.632 12.352V12.8H106.696C104.904 12.8 103.56 13.024 102.504 13.504C100.968 14.208 100.136 15.616 100.136 17.472C100.136 20.48 102.504 22.624 105.832 22.624C107.912 22.624 109.704 21.728 110.632 20.256L110.952 22.304H114.472V12.352C114.472 8.544 111.88 6.208 107.72 6.208ZM106.44 19.36C104.904 19.36 103.976 18.656 103.976 17.536C103.976 16.96 104.2 16.512 104.616 16.224C105.128 15.84 105.896 15.68 107.208 15.68H110.632C110.632 17.728 108.744 19.36 106.44 19.36Z" fill="currentColor"/>
<path d="M124.115 22.624C127.09 22.624 130.258 21.024 130.258 17.344C130.258 11.584 122.003 12.992 122.003 10.592C122.003 9.856 122.771 9.248 124.019 9.248C125.746 9.248 126.611 10.272 127.155 11.264L130.131 9.632C128.947 7.488 126.867 6.208 124.147 6.208C121.107 6.208 118.354 7.776 118.354 10.816C118.354 16.672 126.483 14.912 126.483 17.568C126.483 18.4 125.715 19.424 123.923 19.424C121.811 19.424 120.979 17.984 120.562 16.832L117.491 18.208C118.258 20.608 120.786 22.624 124.115 22.624Z" fill="currentColor"/>
<path d="M147.516 14.208C147.516 9.824 145.148 6.208 140.252 6.208C135.004 6.208 132.764 10.368 132.764 14.496C132.764 18.72 135.068 22.624 140.508 22.624C143.164 22.624 145.244 21.696 146.972 19.776L144.316 17.44C143.228 18.688 141.948 19.136 140.54 19.136C138.044 19.136 136.764 17.76 136.604 15.68H147.42C147.484 15.168 147.516 14.688 147.516 14.208ZM136.572 12.64C136.796 11.072 137.884 9.408 140.22 9.408C142.236 9.408 143.772 10.624 143.836 12.64H136.572Z" fill="currentColor"/>
</svg>
